<?xml version="1.0" encoding="UTF-8" standalone="no"?>
<svg
   height="540"
   width="540"
   version="1.1"
   id="svg10"
   sodipodi:docname="CUPS.svg"
   inkscape:version="1.2.1 (9c6d41e410, 2022-07-14)"
   xmlns:inkscape="http://www.inkscape.org/namespaces/inkscape"
   xmlns:sodipodi="http://sodipodi.sourceforge.net/DTD/sodipodi-0.dtd"
   xmlns="http://www.w3.org/2000/svg"
   xmlns:svg="http://www.w3.org/2000/svg">
  <defs
     id="defs14" />
  <sodipodi:namedview
     id="namedview12"
     pagecolor="#ffffff"
     bordercolor="#666666"
     borderopacity="1.0"
     inkscape:showpageshadow="2"
     inkscape:pageopacity="0.0"
     inkscape:pagecheckerboard="0"
     inkscape:deskcolor="#d1d1d1"
     showgrid="false"
     inkscape:zoom="0.775"
     inkscape:cx="259.35484"
     inkscape:cy="310.96774"
     inkscape:window-width="1920"
     inkscape:window-height="1017"
     inkscape:window-x="1272"
     inkscape:window-y="-8"
     inkscape:window-maximized="1"
     inkscape:current-layer="svg10" />
  <metadata
     id="metadata2" />
  <g
     transform="translate(-544.87085,-136.50312)"
     id="g8">
    <path
       d="m 729.128,445.48 c -4.79623,-2.42536 -7.43617,-5.80751 -8.19815,-10.503 l -0.56353,-3.47266 h 4.63084 c 3.51017,0 4.63084,0.374 4.63084,1.54545 0,0.85 1.10455,2.65 2.45455,4 2.01589,2.0159 3.44556,2.45455 8,2.45455 6.03595,0 9.54545,-2.1975 9.54545,-5.97695 0,-2.8212 -3.29145,-4.58471 -13,-6.96523 -4.675,-1.1463 -9.625,-2.90913 -11,-3.9174 -7.74111,-5.67646 -6.10526,-17.8042 3.01993,-22.3889 4.95785,-2.49091 15.125,-2.34392 20.5815,0.29756 4.6279,2.24032 7.12382,5.32717 8.04942,9.95517 0.59605,2.98025 0.57538,2.99572 -4.00018,2.99572 -4.05592,0 -4.77521,-0.34013 -6.08801,-2.87882 -1.76237,-3.40803 -3.30626,-4.12118 -8.92195,-4.12118 -6.61412,0 -10.3596,3.74259 -7.79333,7.78731 0.44922,0.70803 5.6514,2.55233 11.5604,4.09845 12.9842,3.39736 15.6582,5.49502 16.2858,12.7752 0.57327,6.65016 -1.88862,11.181 -7.6555,14.089 -5.95212,3.00148 -15.8439,3.10514 -21.5381,0.22571 z m 88,0 c -4.79623,-2.42536 -7.43617,-5.80751 -8.19815,-10.503 l -0.56353,-3.47266 h 4.63084 c 3.51017,0 4.63084,0.374 4.63084,1.54545 0,0.85 1.10455,2.65 2.45455,4 2.01589,2.0159 3.44556,2.45455 8,2.45455 6.03595,0 9.54545,-2.1975 9.54545,-5.97695 0,-2.8212 -3.29145,-4.58471 -13,-6.96523 -4.675,-1.1463 -9.625,-2.90913 -11,-3.9174 -7.74111,-5.67646 -6.10526,-17.8042 3.01993,-22.3889 4.95785,-2.49091 15.125,-2.34392 20.5815,0.29756 4.6279,2.24032 7.12382,5.32717 8.04942,9.95517 0.59605,2.98025 0.57538,2.99572 -4.00018,2.99572 -4.05592,0 -4.77521,-0.34013 -6.08801,-2.87882 -1.76237,-3.40803 -3.30626,-4.12118 -8.92195,-4.12118 -6.61412,0 -10.3596,3.74259 -7.79333,7.78731 0.44922,0.70803 5.6514,2.55233 11.5604,4.09845 12.9842,3.39736 15.6582,5.49502 16.2858,12.7752 0.57327,6.65016 -1.88862,11.181 -7.6555,14.089 -5.95212,3.00148 -15.8439,3.10514 -21.5381,0.22571 z m -38.5,-7.85401 c 0,-9.75361 1.03617,-7.14117 -12.6413,-31.8717 l -3.45662,-6.25 h 5.83883 5.83882 l 9.88734,20.0953 9.39998,-20.0953 h 5.6365 5.6365 l -4.23647,7.75 c -2.33006,4.2625 -5.96158,10.8278 -8.07005,14.5895 -3.64622,6.50527 -3.83357,7.27501 -3.83357,15.75 v 8.91047 h -5 -5 v -8.8783 z m 86,-10.6217 v -19.5 h -7 -7 v -4 -4 h 19.5 19.5 v 4 4 h -7.5 -7.5 v 19.5 19.5 h -5 -5 z m 30,-4 v -23.5 h 17.5 17.5 v 4 4 h -13 -13 v 5 5 h 12 12 v 4 4 h -12 -12 v 6.5 6.5 h 13.5 13.5 v 4 4 h -18 -18 z m 44,0 v -23.5 h 6.96146 6.96145 l 0.95716,3.75 c 0.52644,2.0625 2.42387,10.1574 4.21652,17.9887 1.79264,7.83128 3.3901,14.1079 3.5499,13.9481 0.15981,-0.15981 1.87932,-7.24222 3.82114,-15.7387 1.94182,-8.49648 3.76456,-16.4606 4.05053,-17.6981 0.47807,-2.06881 1.08212,-2.25 7.50089,-2.25 h 6.98095 v 23.5 23.5 h -4.47744 -4.47744 l -0.54512,-36.5 -8.03454,36 -5.03397,0.29537 -5.03396,0.29536 -3.94877,-18.2954 -3.94876,-18.2954 -0.54512,36.5 h -4.47744 -4.47744 v -23.5 z m 59.0071,-43.093 c -4.57824,-1.98538 -7.71474,-4.99271 -10.3325,-9.90702 -1.68737,-3.16767 -2.13531,-5.77305 -2.15268,-12.5209 -0.027,-10.506 2.71056,-16.7903 9.34573,-21.4537 5.69375,-4.00169 16.44905,-4.80596 23.36405,-1.74713 4.8916,2.1638 9.5704,7.44697 9.9978,11.2892 0.2482,2.23207 -0.1141,2.4574 -4.3958,2.73393 -3.9532,0.25532 -4.7645,-0.008 -5.3091,-1.72391 -1.7258,-5.4374 -10.2965,-7.79812 -16.5573,-4.56053 -8.77712,4.53879 -9.18034,24.3334 -0.6022,29.564 5.8668,3.57742 12.9454,2.02994 16.6886,-3.64835 3.0823,-4.67578 2.5872,-5.43257 -3.5537,-5.43257 h -5.5 v -4 -4 h 10 10 v 13 13 h -3.5 c -3.0666,0 -3.5,-0.30952 -3.5,-2.5 0,-2.89157 -1.1685,-3.20731 -3.1276,-0.8451 -3.5141,4.23747 -14.1923,5.6459 -20.86525,2.75212 z m -275.007,-22.907 v -23.5 l 12.75,0.002 c 10.1675,0.001 13.4418,0.35571 16.1652,1.75 8.59309,4.39933 9.47424,18.0112 1.63444,25.2484 -2.38681,2.20338 -3.76657,2.54147 -11.6289,2.8495 l -8.92075,0.3495 v 8.4005 8.4005 h -5 -5 v -23.5 z m 24,-3.5 c 1.22555,-1.22555 2,-3.33333 2,-5.4433 0,-4.73009 -2.84785,-6.5567 -10.2225,-6.5567 h -5.77749 v 7 7 h 6 c 4.66667,0 6.44444,-0.44444 8,-2 z m 20,3.5 v -23.5 h 14.0321 c 16.0213,0 19.788,1.01625 22.9422,6.18982 3.41122,5.59509 1.91932,14.1912 -2.9117,16.7766 -1.81915,0.97358 -1.76777,1.17459 1.01036,3.95272 2.70693,2.70693 2.92697,3.48155 2.92697,10.3039 0,4.56558 0.47637,7.85516 1.25,8.63183 1.00217,1.00611 0.0604,1.19445 -4.75,0.95 l -6,-0.30491 -0.5,-7.833 c -0.62724,-9.82633 -1.54862,-10.667 -11.6911,-10.667 h -7.30887 v 9.5 9.5 h -4.5 -4.5 v -23.5 z m 27.1713,-5.15499 c 2.40001,-2.17198 2.32455,-5.8492 -0.17126,-8.34501 -1.66667,-1.66667 -3.33333,-2 -10,-2 h -8 v 6 6 h 8.17126 c 6.20012,0 8.6124,-0.39923 10,-1.65499 z m 19.8287,5.15499 v -23.5 h 5 5 v 23.5 23.5 h -5 -5 z m 19,-0.0523 v -23.5523 l 10.2574,0.60452 18.2426,31.5505 0.27477,-16.0252 0.27477,-16.0252 h 4.47523 4.47523 v 23.5 23.5 h -4.93282 -4.93282 l -19.1237,-33.5 -0.0107,33.5 h -4.5 -4.5 v -23.5523 z m 58,4.05226 v -19.5 h -7 -7 v -4 -4 h 19.5 19.5 v 4 4 h -7.5 -7.5 v 19.5 19.5 h -5 -5 z m 29,-4 v -23.5 h 5 5 v 23.5 23.5 h -5 -5 z m 19,-0.0523 v -23.5523 l 10.2574,0.60452 18.2426,31.5505 0.27477,-16.0252 0.27477,-16.0252 h 4.47523 4.47523 v 23.5 23.5 h -4.93282 -4.93282 l -19.1237,-33.5 -0.0107,33.5 h -4.5 -4.5 v -23.5523 z m -207.873,-43.5615 c -7.14139,-3.62041 -8.07883,-6.87465 -8.10514,-28.1363 l -0.022,-17.75 h 4.93688 4.93687 l 0.31313,18.0904 c 0.30509,17.6267 0.37363,18.1394 2.6739,20 3.46701,2.80439 9.59876,2.54096 12.6847,-0.54496 2.41954,-2.41953 2.45455,-2.70482 2.45455,-20 v -17.5454 h 5.06061 5.06061 l -0.31061,18.93 c -0.33979,20.7086 -0.57142,21.5624 -7.1899,26.5038 -4.24999,3.17308 -16.6356,3.42219 -22.4936,0.45241 z m 39.8729,-22.4385 v -23.5523 l 10.2574,0.60452 18.2426,31.5505 0.27477,-16.0252 0.27477,-16.0252 h 4.47523 4.47523 v 23.5 23.5 h -4.93282 -4.93282 l -19.1237,-33.5 -0.0107,33.5 h -4.5 -4.5 v -23.5523 z m 47,0.0523 v -23.5 h 5 5 v 23.5 23.5 h -5 -5 z m 16.5737,20.75 c 0.99203,-1.5125 4.452,-6.95236 7.68882,-12.0886 l 5.88512,-9.33859 -5.76162,-9.16141 c -3.16889,-5.03877 -6.40385,-10.1739 -7.18881,-11.4114 -1.42136,-2.24082 -1.40299,-2.25 4.5019,-2.25 h 5.92909 l 3.93592,6.9976 c 2.16476,3.84867 4.18976,6.99867 4.5,7 0.31024,0.001 2.33524,-3.14652 4.5,-6.9952 l 3.93592,-6.99759 5.78073,-0.002 5.78073,-0.002 -3.69065,5.75 c -2.02986,3.1625 -5.22897,8.14603 -7.10913,11.0745 -1.88016,2.92849 -3.20071,5.85349 -2.93456,6.5 0.26615,0.64652 3.64249,6.12549 7.50299,12.1755 l 7.01909,11 -5.0554,0.3068 c -2.78047,0.16873 -5.56568,0.11098 -6.18935,-0.12834 -0.62367,-0.23933 -2.89066,-3.63989 -5.03776,-7.5568 -2.1471,-3.91691 -4.22719,-7.12166 -4.62242,-7.12166 -0.39523,0 -2.64963,3.375 -5.00978,7.5 l -4.29117,7.5 h -5.93667 -5.93667 z"
       id="path4" />
    <path
       d="m 800.128,659.802 c -19.5303,-1.3361 -45.9524,-7.05591 -63.2861,-13.7001 -27.714,-10.623 -49.9499,-25.2553 -70.2617,-46.2354 -35.1477,-36.3042 -55.8014,-84.7923 -63.6212,-149.362 -2.44776,-20.2116 -2.46353,-69.8482 -0.0282,-88.914 8.95267,-70.0905 36.115,-124.468 80.6973,-161.551 47.2345,-39.289 116.97,-55.5162 186.719,-43.4485 30.8457,5.33683 59.715,17.2378 83.4796,34.4131 11.2081,8.10041 29.8027,26.932 38.0364,38.521 8.3903,11.8096 18.5401,32.0781 23.1862,46.3015 3.1031,9.4998 7.5793,29.1239 7.5793,33.2282 0,1.23494 -4.6522,1.44924 -31.4614,1.44924 h -31.4614 l -1.05295,-4.25 c -14.2366,-57.4628 -55.225,-89.8766 -119.849,-94.7774 -55.6357,-4.21909 -104.274,17.294 -134.76,59.6051 -13.7479,19.0805 -25.5215,47.2038 -30.7377,73.4222 -4.09544,20.5849 -5.14574,32.7761 -5.12607,59.5 0.0191,25.9011 1.1983,41.8019 4.561,61.5 11.4523,67.0858 44.0357,110.768 95.3882,127.881 28.0521,9.34805 65.9135,11.2616 91.9819,4.64878 50.9121,-12.9149 85.1183,-51.5222 101.031,-114.03 l 3.30938,-13 63.27394,-0.52822 -0.6553,3.76411 c -12.4275,71.3776 -40.63834,119.282 -89.56134,152.084 -35.8085,24.0084 -88.4137,36.8277 -137.379,33.4779 z"
       id="path6" />
  </g>
</svg>
